<mxfile host="app.diagrams.net" modified="2022-11-14T21:53:42.374Z" agent="5.0 (Windows NT 10.0; Win64; x64) AppleWebKit/537.36 (KHTML, like Gecko) Chrome/107.0.0.0 Safari/537.36" etag="Va1ymkowZTG1FRhfPiYx" version="20.5.3" type="github">
  <diagram id="ZzqaPRYnkgcQ8a8fVhsD" name="Page-1">
    <mxGraphModel dx="1641" dy="918" grid="1" gridSize="10" guides="1" tooltips="1" connect="1" arrows="1" fold="1" page="1" pageScale="1" pageWidth="850" pageHeight="1100" math="0" shadow="0">
      <root>
        <mxCell id="0" />
        <mxCell id="1" parent="0" />
        <mxCell id="YWr4_W7QPi-AhlxL-cPf-1" value="" style="rounded=0;whiteSpace=wrap;html=1;" parent="1" vertex="1">
          <mxGeometry x="90" y="30" width="140" height="40" as="geometry" />
        </mxCell>
        <mxCell id="YWr4_W7QPi-AhlxL-cPf-2" value="&lt;b&gt;UCS dmain 1/2/3/4&lt;/b&gt;" style="text;strokeColor=none;fillColor=none;align=left;verticalAlign=middle;spacingLeft=4;spacingRight=4;overflow=hidden;points=[[0,0.5],[1,0.5]];portConstraint=eastwest;rotatable=0;whiteSpace=wrap;html=1;" parent="1" vertex="1">
          <mxGeometry x="100" y="37.5" width="140" height="25" as="geometry" />
        </mxCell>
        <mxCell id="YWr4_W7QPi-AhlxL-cPf-3" value="" style="endArrow=classic;html=1;rounded=0;exitX=0.128;exitY=1.001;exitDx=0;exitDy=0;exitPerimeter=0;strokeWidth=2;" parent="1" source="YWr4_W7QPi-AhlxL-cPf-1" edge="1">
          <mxGeometry width="50" height="50" relative="1" as="geometry">
            <mxPoint x="400" y="500" as="sourcePoint" />
            <mxPoint x="108" y="130" as="targetPoint" />
          </mxGeometry>
        </mxCell>
        <mxCell id="YWr4_W7QPi-AhlxL-cPf-4" value="&lt;b&gt;domain1&lt;/b&gt;" style="text;strokeColor=none;fillColor=none;align=left;verticalAlign=middle;spacingLeft=4;spacingRight=4;overflow=hidden;points=[[0,0.5],[1,0.5]];portConstraint=eastwest;rotatable=0;whiteSpace=wrap;html=1;" parent="1" vertex="1">
          <mxGeometry x="110" y="80" width="80" height="30" as="geometry" />
        </mxCell>
        <mxCell id="YWr4_W7QPi-AhlxL-cPf-5" value="" style="rounded=0;whiteSpace=wrap;html=1;" parent="1" vertex="1">
          <mxGeometry x="70" y="130" width="130" height="30" as="geometry" />
        </mxCell>
        <mxCell id="YWr4_W7QPi-AhlxL-cPf-7" value="&lt;b&gt;uslas-c6296fi-01&lt;/b&gt;" style="text;strokeColor=none;fillColor=none;align=left;verticalAlign=middle;spacingLeft=4;spacingRight=4;overflow=hidden;points=[[0,0.5],[1,0.5]];portConstraint=eastwest;rotatable=0;whiteSpace=wrap;html=1;" parent="1" vertex="1">
          <mxGeometry x="80" y="130" width="120" height="30" as="geometry" />
        </mxCell>
        <mxCell id="YWr4_W7QPi-AhlxL-cPf-9" style="edgeStyle=orthogonalEdgeStyle;rounded=0;orthogonalLoop=1;jettySize=auto;html=1;exitX=1;exitY=0.5;exitDx=0;exitDy=0;" parent="1" source="YWr4_W7QPi-AhlxL-cPf-2" target="YWr4_W7QPi-AhlxL-cPf-2" edge="1">
          <mxGeometry relative="1" as="geometry" />
        </mxCell>
        <mxCell id="YWr4_W7QPi-AhlxL-cPf-10" value="&lt;b&gt;next domain&lt;/b&gt;" style="text;strokeColor=none;fillColor=none;align=left;verticalAlign=middle;spacingLeft=4;spacingRight=4;overflow=hidden;points=[[0,0.5],[1,0.5]];portConstraint=eastwest;rotatable=0;whiteSpace=wrap;html=1;" parent="1" vertex="1">
          <mxGeometry x="245" y="20" width="110" height="35" as="geometry" />
        </mxCell>
        <mxCell id="YWr4_W7QPi-AhlxL-cPf-11" value="" style="rounded=1;whiteSpace=wrap;html=1;" parent="1" vertex="1">
          <mxGeometry x="50" y="260" width="100" height="30" as="geometry" />
        </mxCell>
        <mxCell id="YWr4_W7QPi-AhlxL-cPf-12" value="&lt;b&gt;HDD-1&lt;/b&gt;" style="text;strokeColor=none;fillColor=none;align=left;verticalAlign=middle;spacingLeft=4;spacingRight=4;overflow=hidden;points=[[0,0.5],[1,0.5]];portConstraint=eastwest;rotatable=0;whiteSpace=wrap;html=1;" parent="1" vertex="1">
          <mxGeometry x="70" y="260" width="80" height="30" as="geometry" />
        </mxCell>
        <mxCell id="YWr4_W7QPi-AhlxL-cPf-13" value="" style="endArrow=classic;html=1;rounded=0;exitX=0.39;exitY=1.09;exitDx=0;exitDy=0;exitPerimeter=0;strokeWidth=2;" parent="1" source="YWr4_W7QPi-AhlxL-cPf-7" target="YWr4_W7QPi-AhlxL-cPf-12" edge="1">
          <mxGeometry width="50" height="50" relative="1" as="geometry">
            <mxPoint x="400" y="500" as="sourcePoint" />
            <mxPoint x="450" y="450" as="targetPoint" />
          </mxGeometry>
        </mxCell>
        <mxCell id="YWr4_W7QPi-AhlxL-cPf-17" value="" style="endArrow=none;dashed=1;html=1;rounded=0;strokeWidth=3;" parent="1" edge="1">
          <mxGeometry width="50" height="50" relative="1" as="geometry">
            <mxPoint x="850" y="550" as="sourcePoint" />
            <mxPoint x="920" y="550.5" as="targetPoint" />
          </mxGeometry>
        </mxCell>
        <mxCell id="YWr4_W7QPi-AhlxL-cPf-22" value="" style="rounded=1;whiteSpace=wrap;html=1;" parent="1" vertex="1">
          <mxGeometry x="190" y="260" width="100" height="30" as="geometry" />
        </mxCell>
        <mxCell id="YWr4_W7QPi-AhlxL-cPf-23" value="&lt;b&gt;HDD-2&lt;/b&gt;" style="text;strokeColor=none;fillColor=none;align=left;verticalAlign=middle;spacingLeft=4;spacingRight=4;overflow=hidden;points=[[0,0.5],[1,0.5]];portConstraint=eastwest;rotatable=0;whiteSpace=wrap;html=1;" parent="1" vertex="1">
          <mxGeometry x="210" y="260" width="80" height="30" as="geometry" />
        </mxCell>
        <mxCell id="YWr4_W7QPi-AhlxL-cPf-24" value="" style="rounded=1;whiteSpace=wrap;html=1;" parent="1" vertex="1">
          <mxGeometry x="410" y="260" width="100" height="30" as="geometry" />
        </mxCell>
        <mxCell id="YWr4_W7QPi-AhlxL-cPf-25" value="&lt;b&gt;Chassis- last&lt;/b&gt;" style="text;strokeColor=none;fillColor=none;align=left;verticalAlign=middle;spacingLeft=4;spacingRight=4;overflow=hidden;points=[[0,0.5],[1,0.5]];portConstraint=eastwest;rotatable=0;whiteSpace=wrap;html=1;" parent="1" vertex="1">
          <mxGeometry x="415" y="260" width="90" height="30" as="geometry" />
        </mxCell>
        <mxCell id="YWr4_W7QPi-AhlxL-cPf-27" value="" style="endArrow=none;dashed=1;html=1;rounded=0;strokeWidth=3;entryX=0;entryY=0.5;entryDx=0;entryDy=0;" parent="1" target="YWr4_W7QPi-AhlxL-cPf-24" edge="1">
          <mxGeometry width="50" height="50" relative="1" as="geometry">
            <mxPoint x="300" y="275" as="sourcePoint" />
            <mxPoint x="380" y="274.5" as="targetPoint" />
          </mxGeometry>
        </mxCell>
        <mxCell id="YWr4_W7QPi-AhlxL-cPf-29" value="" style="rounded=0;whiteSpace=wrap;html=1;" parent="1" vertex="1">
          <mxGeometry x="230" y="130" width="130" height="30" as="geometry" />
        </mxCell>
        <mxCell id="YWr4_W7QPi-AhlxL-cPf-30" value="&lt;b&gt;uslas-c6296fi-02&lt;/b&gt;" style="text;strokeColor=none;fillColor=none;align=left;verticalAlign=middle;spacingLeft=4;spacingRight=4;overflow=hidden;points=[[0,0.5],[1,0.5]];portConstraint=eastwest;rotatable=0;whiteSpace=wrap;html=1;" parent="1" vertex="1">
          <mxGeometry x="240" y="130" width="120" height="30" as="geometry" />
        </mxCell>
        <mxCell id="YWr4_W7QPi-AhlxL-cPf-32" value="" style="endArrow=classic;html=1;rounded=0;entryX=1;entryY=0.5;entryDx=0;entryDy=0;strokeWidth=2;exitX=0.545;exitY=-0.13;exitDx=0;exitDy=0;exitPerimeter=0;" parent="1" source="YWr4_W7QPi-AhlxL-cPf-25" target="YWr4_W7QPi-AhlxL-cPf-30" edge="1">
          <mxGeometry width="50" height="50" relative="1" as="geometry">
            <mxPoint x="450" y="200" as="sourcePoint" />
            <mxPoint x="506.29999999999995" y="334.99" as="targetPoint" />
          </mxGeometry>
        </mxCell>
        <mxCell id="YWr4_W7QPi-AhlxL-cPf-33" value="" style="endArrow=classic;html=1;rounded=0;strokeWidth=2;exitX=0.545;exitY=-0.13;exitDx=0;exitDy=0;exitPerimeter=0;" parent="1" target="YWr4_W7QPi-AhlxL-cPf-2" edge="1">
          <mxGeometry width="50" height="50" relative="1" as="geometry">
            <mxPoint x="324.05" y="130" as="sourcePoint" />
            <mxPoint x="324" y="40" as="targetPoint" />
            <Array as="points">
              <mxPoint x="324" y="50" />
            </Array>
          </mxGeometry>
        </mxCell>
        <mxCell id="YWr4_W7QPi-AhlxL-cPf-38" value="" style="endArrow=classic;html=1;rounded=0;strokeWidth=2;exitX=0.734;exitY=0.983;exitDx=0;exitDy=0;exitPerimeter=0;" parent="1" source="YWr4_W7QPi-AhlxL-cPf-23" edge="1">
          <mxGeometry width="50" height="50" relative="1" as="geometry">
            <mxPoint x="410" y="540" as="sourcePoint" />
            <mxPoint x="420" y="370" as="targetPoint" />
          </mxGeometry>
        </mxCell>
        <mxCell id="YWr4_W7QPi-AhlxL-cPf-42" value="" style="ellipse;whiteSpace=wrap;html=1;strokeWidth=2;" parent="1" vertex="1">
          <mxGeometry x="400" y="360" width="120" height="40" as="geometry" />
        </mxCell>
        <mxCell id="YWr4_W7QPi-AhlxL-cPf-43" value="&lt;b&gt;Check all HDDs&lt;/b&gt;" style="text;strokeColor=none;fillColor=none;align=left;verticalAlign=middle;spacingLeft=4;spacingRight=4;overflow=hidden;points=[[0,0.5],[1,0.5]];portConstraint=eastwest;rotatable=0;whiteSpace=wrap;html=1;" parent="1" vertex="1">
          <mxGeometry x="420" y="370" width="110" height="20" as="geometry" />
        </mxCell>
        <mxCell id="YWr4_W7QPi-AhlxL-cPf-44" value="" style="endArrow=classic;html=1;rounded=0;entryX=1;entryY=0.5;entryDx=0;entryDy=0;strokeWidth=2;exitX=0.566;exitY=-0.041;exitDx=0;exitDy=0;exitPerimeter=0;" parent="1" source="YWr4_W7QPi-AhlxL-cPf-42" edge="1">
          <mxGeometry width="50" height="50" relative="1" as="geometry">
            <mxPoint x="444.05" y="340" as="sourcePoint" />
            <mxPoint x="349.99999999999983" y="278.9000000000001" as="targetPoint" />
          </mxGeometry>
        </mxCell>
        <mxCell id="YWr4_W7QPi-AhlxL-cPf-45" value="" style="shape=table;html=1;whiteSpace=wrap;startSize=0;container=1;collapsible=0;childLayout=tableLayout;" parent="1" vertex="1">
          <mxGeometry x="20" y="490" width="240" height="111" as="geometry" />
        </mxCell>
        <mxCell id="YWr4_W7QPi-AhlxL-cPf-46" value="" style="shape=tableRow;horizontal=0;startSize=0;swimlaneHead=0;swimlaneBody=0;top=0;left=0;bottom=0;right=0;collapsible=0;dropTarget=0;fillColor=none;points=[[0,0.5],[1,0.5]];portConstraint=eastwest;" parent="YWr4_W7QPi-AhlxL-cPf-45" vertex="1">
          <mxGeometry width="240" height="30" as="geometry" />
        </mxCell>
        <mxCell id="YWr4_W7QPi-AhlxL-cPf-47" value="&lt;b&gt;UCS domain&lt;/b&gt;" style="shape=partialRectangle;html=1;whiteSpace=wrap;connectable=0;fillColor=none;top=0;left=0;bottom=0;right=0;overflow=hidden;" parent="YWr4_W7QPi-AhlxL-cPf-46" vertex="1">
          <mxGeometry width="80" height="30" as="geometry">
            <mxRectangle width="80" height="30" as="alternateBounds" />
          </mxGeometry>
        </mxCell>
        <mxCell id="YWr4_W7QPi-AhlxL-cPf-48" value="&lt;b&gt;label&lt;/b&gt;" style="shape=partialRectangle;html=1;whiteSpace=wrap;connectable=0;fillColor=none;top=0;left=0;bottom=0;right=0;overflow=hidden;" parent="YWr4_W7QPi-AhlxL-cPf-46" vertex="1">
          <mxGeometry x="80" width="70" height="30" as="geometry">
            <mxRectangle width="70" height="30" as="alternateBounds" />
          </mxGeometry>
        </mxCell>
        <mxCell id="YWr4_W7QPi-AhlxL-cPf-49" value="&lt;b&gt;Location&lt;/b&gt;" style="shape=partialRectangle;html=1;whiteSpace=wrap;connectable=0;fillColor=none;top=0;left=0;bottom=0;right=0;overflow=hidden;" parent="YWr4_W7QPi-AhlxL-cPf-46" vertex="1">
          <mxGeometry x="150" width="90" height="30" as="geometry">
            <mxRectangle width="90" height="30" as="alternateBounds" />
          </mxGeometry>
        </mxCell>
        <mxCell id="YWr4_W7QPi-AhlxL-cPf-50" value="" style="shape=tableRow;horizontal=0;startSize=0;swimlaneHead=0;swimlaneBody=0;top=0;left=0;bottom=0;right=0;collapsible=0;dropTarget=0;fillColor=none;points=[[0,0.5],[1,0.5]];portConstraint=eastwest;" parent="YWr4_W7QPi-AhlxL-cPf-45" vertex="1">
          <mxGeometry y="30" width="240" height="27" as="geometry" />
        </mxCell>
        <mxCell id="YWr4_W7QPi-AhlxL-cPf-51" value="&lt;b&gt;blade model&lt;/b&gt;" style="shape=partialRectangle;html=1;whiteSpace=wrap;connectable=0;fillColor=none;top=0;left=0;bottom=0;right=0;overflow=hidden;" parent="YWr4_W7QPi-AhlxL-cPf-50" vertex="1">
          <mxGeometry width="80" height="27" as="geometry">
            <mxRectangle width="80" height="27" as="alternateBounds" />
          </mxGeometry>
        </mxCell>
        <mxCell id="YWr4_W7QPi-AhlxL-cPf-52" value="&lt;b&gt;blade s/n&lt;/b&gt;" style="shape=partialRectangle;html=1;whiteSpace=wrap;connectable=0;fillColor=none;top=0;left=0;bottom=0;right=0;overflow=hidden;" parent="YWr4_W7QPi-AhlxL-cPf-50" vertex="1">
          <mxGeometry x="80" width="70" height="27" as="geometry">
            <mxRectangle width="70" height="27" as="alternateBounds" />
          </mxGeometry>
        </mxCell>
        <mxCell id="YWr4_W7QPi-AhlxL-cPf-53" value="&lt;b&gt;HDD model&lt;/b&gt;" style="shape=partialRectangle;html=1;whiteSpace=wrap;connectable=0;fillColor=none;top=0;left=0;bottom=0;right=0;overflow=hidden;" parent="YWr4_W7QPi-AhlxL-cPf-50" vertex="1">
          <mxGeometry x="150" width="90" height="27" as="geometry">
            <mxRectangle width="90" height="27" as="alternateBounds" />
          </mxGeometry>
        </mxCell>
        <mxCell id="YWr4_W7QPi-AhlxL-cPf-54" value="" style="shape=tableRow;horizontal=0;startSize=0;swimlaneHead=0;swimlaneBody=0;top=0;left=0;bottom=0;right=0;collapsible=0;dropTarget=0;fillColor=none;points=[[0,0.5],[1,0.5]];portConstraint=eastwest;" parent="YWr4_W7QPi-AhlxL-cPf-45" vertex="1">
          <mxGeometry y="57" width="240" height="27" as="geometry" />
        </mxCell>
        <mxCell id="YWr4_W7QPi-AhlxL-cPf-55" value="&lt;b&gt;HDD vendor&lt;/b&gt;" style="shape=partialRectangle;html=1;whiteSpace=wrap;connectable=0;fillColor=none;top=0;left=0;bottom=0;right=0;overflow=hidden;" parent="YWr4_W7QPi-AhlxL-cPf-54" vertex="1">
          <mxGeometry width="80" height="27" as="geometry">
            <mxRectangle width="80" height="27" as="alternateBounds" />
          </mxGeometry>
        </mxCell>
        <mxCell id="YWr4_W7QPi-AhlxL-cPf-56" value="&lt;b&gt;speed&lt;/b&gt;" style="shape=partialRectangle;html=1;whiteSpace=wrap;connectable=0;fillColor=none;top=0;left=0;bottom=0;right=0;overflow=hidden;" parent="YWr4_W7QPi-AhlxL-cPf-54" vertex="1">
          <mxGeometry x="80" width="70" height="27" as="geometry">
            <mxRectangle width="70" height="27" as="alternateBounds" />
          </mxGeometry>
        </mxCell>
        <mxCell id="YWr4_W7QPi-AhlxL-cPf-57" value="&lt;b&gt;size&lt;/b&gt;" style="shape=partialRectangle;html=1;whiteSpace=wrap;connectable=0;fillColor=none;top=0;left=0;bottom=0;right=0;overflow=hidden;pointerEvents=1;" parent="YWr4_W7QPi-AhlxL-cPf-54" vertex="1">
          <mxGeometry x="150" width="90" height="27" as="geometry">
            <mxRectangle width="90" height="27" as="alternateBounds" />
          </mxGeometry>
        </mxCell>
        <mxCell id="YWr4_W7QPi-AhlxL-cPf-60" style="edgeStyle=orthogonalEdgeStyle;rounded=0;orthogonalLoop=1;jettySize=auto;html=1;exitX=1;exitY=0.5;exitDx=0;exitDy=0;strokeWidth=2;" parent="YWr4_W7QPi-AhlxL-cPf-45" source="YWr4_W7QPi-AhlxL-cPf-54" target="YWr4_W7QPi-AhlxL-cPf-54" edge="1">
          <mxGeometry relative="1" as="geometry" />
        </mxCell>
        <mxCell id="YWr4_W7QPi-AhlxL-cPf-61" value="" style="shape=tableRow;horizontal=0;startSize=0;swimlaneHead=0;swimlaneBody=0;top=0;left=0;bottom=0;right=0;collapsible=0;dropTarget=0;fillColor=none;points=[[0,0.5],[1,0.5]];portConstraint=eastwest;" parent="YWr4_W7QPi-AhlxL-cPf-45" vertex="1">
          <mxGeometry y="84" width="240" height="27" as="geometry" />
        </mxCell>
        <mxCell id="YWr4_W7QPi-AhlxL-cPf-62" value="&lt;b&gt;disk s/n&lt;/b&gt;" style="shape=partialRectangle;html=1;whiteSpace=wrap;connectable=0;fillColor=none;top=0;left=0;bottom=0;right=0;overflow=hidden;" parent="YWr4_W7QPi-AhlxL-cPf-61" vertex="1">
          <mxGeometry width="80" height="27" as="geometry">
            <mxRectangle width="80" height="27" as="alternateBounds" />
          </mxGeometry>
        </mxCell>
        <mxCell id="YWr4_W7QPi-AhlxL-cPf-63" value="&lt;b&gt;date&lt;/b&gt;" style="shape=partialRectangle;html=1;whiteSpace=wrap;connectable=0;fillColor=none;top=0;left=0;bottom=0;right=0;overflow=hidden;" parent="YWr4_W7QPi-AhlxL-cPf-61" vertex="1">
          <mxGeometry x="80" width="70" height="27" as="geometry">
            <mxRectangle width="70" height="27" as="alternateBounds" />
          </mxGeometry>
        </mxCell>
        <mxCell id="YWr4_W7QPi-AhlxL-cPf-64" value="" style="shape=partialRectangle;html=1;whiteSpace=wrap;connectable=0;fillColor=none;top=0;left=0;bottom=0;right=0;overflow=hidden;pointerEvents=1;" parent="YWr4_W7QPi-AhlxL-cPf-61" vertex="1">
          <mxGeometry x="150" width="90" height="27" as="geometry">
            <mxRectangle width="90" height="27" as="alternateBounds" />
          </mxGeometry>
        </mxCell>
        <mxCell id="YWr4_W7QPi-AhlxL-cPf-83" value="" style="endArrow=classic;html=1;rounded=0;exitX=0.397;exitY=1.125;exitDx=0;exitDy=0;exitPerimeter=0;entryX=0.441;entryY=-0.006;entryDx=0;entryDy=0;entryPerimeter=0;strokeWidth=6;" parent="1" source="YWr4_W7QPi-AhlxL-cPf-12" target="YWr4_W7QPi-AhlxL-cPf-46" edge="1">
          <mxGeometry width="50" height="50" relative="1" as="geometry">
            <mxPoint x="94.20000000000005" y="374.6199999999999" as="sourcePoint" />
            <mxPoint x="505.8800000000001" y="595.4100000000001" as="targetPoint" />
          </mxGeometry>
        </mxCell>
        <mxCell id="YWr4_W7QPi-AhlxL-cPf-95" value="" style="endArrow=classic;html=1;rounded=0;exitX=0.49;exitY=1.154;exitDx=0;exitDy=0;exitPerimeter=0;strokeWidth=3;" parent="1" edge="1">
          <mxGeometry width="50" height="50" relative="1" as="geometry">
            <mxPoint x="1060" y="450" as="sourcePoint" />
            <mxPoint x="1200" y="520" as="targetPoint" />
          </mxGeometry>
        </mxCell>
        <mxCell id="YWr4_W7QPi-AhlxL-cPf-96" value="&lt;b&gt;Slot empty&lt;/b&gt;" style="text;strokeColor=none;fillColor=none;align=left;verticalAlign=middle;spacingLeft=4;spacingRight=4;overflow=hidden;points=[[0,0.5],[1,0.5]];portConstraint=eastwest;rotatable=0;whiteSpace=wrap;html=1;" parent="1" vertex="1">
          <mxGeometry x="170" y="390" width="140" height="40" as="geometry" />
        </mxCell>
        <mxCell id="YWr4_W7QPi-AhlxL-cPf-100" value="" style="endArrow=classic;html=1;rounded=0;strokeWidth=2;exitX=1.015;exitY=-0.043;exitDx=0;exitDy=0;exitPerimeter=0;entryX=0.922;entryY=1.043;entryDx=0;entryDy=0;entryPerimeter=0;" parent="1" edge="1" source="YWr4_W7QPi-AhlxL-cPf-54">
          <mxGeometry width="50" height="50" relative="1" as="geometry">
            <mxPoint x="316.24" y="529.36" as="sourcePoint" />
            <mxPoint x="230" y="290.65" as="targetPoint" />
            <Array as="points">
              <mxPoint x="350" y="546" />
              <mxPoint x="350" y="430" />
            </Array>
          </mxGeometry>
        </mxCell>
        <mxCell id="YWr4_W7QPi-AhlxL-cPf-101" value="&lt;b&gt;next HDD&lt;/b&gt;" style="text;strokeColor=none;fillColor=none;align=left;verticalAlign=middle;spacingLeft=4;spacingRight=4;overflow=hidden;points=[[0,0.5],[1,0.5]];portConstraint=eastwest;rotatable=0;whiteSpace=wrap;html=1;fontSize=14;fontColor=#000000;" parent="1" vertex="1">
          <mxGeometry x="360" y="460" width="80" height="20" as="geometry" />
        </mxCell>
        <mxCell id="YWr4_W7QPi-AhlxL-cPf-102" style="edgeStyle=orthogonalEdgeStyle;rounded=0;orthogonalLoop=1;jettySize=auto;html=1;exitX=0.5;exitY=1;exitDx=0;exitDy=0;strokeWidth=3;fontSize=14;fontColor=#000000;" parent="1" source="YWr4_W7QPi-AhlxL-cPf-42" target="YWr4_W7QPi-AhlxL-cPf-42" edge="1">
          <mxGeometry relative="1" as="geometry" />
        </mxCell>
        <mxCell id="YWr4_W7QPi-AhlxL-cPf-104" value="" style="shape=requiredInterface;html=1;verticalLabelPosition=bottom;sketch=0;fontSize=14;fontColor=#000000;rotation=0;strokeWidth=2;" parent="1" vertex="1">
          <mxGeometry x="510" y="55" width="40" height="655" as="geometry" />
        </mxCell>
        <mxCell id="YWr4_W7QPi-AhlxL-cPf-106" value="" style="endArrow=classic;html=1;rounded=0;exitX=0.39;exitY=1.09;exitDx=0;exitDy=0;exitPerimeter=0;strokeWidth=2;" parent="1" edge="1">
          <mxGeometry width="50" height="50" relative="1" as="geometry">
            <mxPoint x="560" y="340" as="sourcePoint" />
            <mxPoint x="640" y="340" as="targetPoint" />
          </mxGeometry>
        </mxCell>
        <mxCell id="YWr4_W7QPi-AhlxL-cPf-111" value="&lt;font color=&quot;#0000ff&quot;&gt;working blade report&lt;/font&gt;&lt;br&gt;&lt;font color=&quot;#ff0000&quot;&gt;free blade report&lt;/font&gt;&lt;br&gt;free slot report" style="text;strokeColor=none;fillColor=none;html=1;fontSize=24;fontStyle=1;verticalAlign=middle;align=left;strokeWidth=2;fontColor=#000000;" parent="1" vertex="1">
          <mxGeometry x="650" y="230" width="240" height="230" as="geometry" />
        </mxCell>
        <mxCell id="SAjWAbSKHdURNKpRhwOl-1" value="&lt;b&gt;&lt;font style=&quot;font-size: 12px;&quot;&gt;Check all HDDs&lt;/font&gt;&lt;/b&gt;" style="text;strokeColor=none;fillColor=none;align=left;verticalAlign=middle;spacingLeft=4;spacingRight=4;overflow=hidden;points=[[0,0.5],[1,0.5]];portConstraint=eastwest;rotatable=0;whiteSpace=wrap;html=1;fontSize=14;fontColor=#000000;" vertex="1" parent="1">
          <mxGeometry x="115" y="200" width="130" height="20" as="geometry" />
        </mxCell>
      </root>
    </mxGraphModel>
  </diagram>
</mxfile>
